<?xml version="1.0" encoding="UTF-8" standalone="no"?>
<!-- Copyright 2022-2023 Lexikos, used with permission under GNU GPLv3 -->

<!-- https://github.com/AutoHotkey/AutoHotkey/commit/446829bc730aa002635d3d36bfd17e892b6981c0 -->

<!-- https://github.com/AutoHotkey/AutoHotkey/blob/alpha/source/resources/icons.svg -->

<!-- Created with Inkscape (http://www.inkscape.org/) -->

<svg
   width="30.88146"
   height="34.057064"
   viewBox="-3 -1.4 9.1357651 11.671639"
   version="1.1"
   xml:space="preserve"
   id="svg6"
   sodipodi:docname="autohotkey2.svg"
   xmlns:inkscape="http://www.inkscape.org/namespaces/inkscape"
   xmlns:sodipodi="http://sodipodi.sourceforge.net/DTD/sodipodi-0.dtd"
   xmlns="http://www.w3.org/2000/svg"
   xmlns:svg="http://www.w3.org/2000/svg"><defs
   id="defs6" /><sodipodi:namedview
   id="namedview6"
   pagecolor="#ffffff"
   bordercolor="#000000"
   borderopacity="0.25"
   inkscape:showpageshadow="2"
   inkscape:pageopacity="0.0"
   inkscape:pagecheckerboard="0"
   inkscape:deskcolor="#d1d1d1"
   showguides="false" />
  
  <g
   style="display:inline"
   id="g6"
   transform="translate(-7.4104168,-4.0458336)">
    <path
   style="display:inline;fill:#8cf287;stroke-width:0.293683"
   d="m 4.2333333,2.660819 c 0.7328958,0 1.3229166,-0.1667343 1.3229166,0.612115 v 9.442052 c 0,0.778849 -0.5900208,1.5875 -1.3229166,1.5875 -0.7328958,0 -1.3229166,0.166734 -1.3229166,-0.612115 V 4.2483189 c 0,-0.7788491 0.5900208,-1.5874999 1.3229166,-1.5874999 z"
   id="path4" />
    <path
   style="display:inline;fill:#8cf287;stroke-width:0.293683"
   d="m 12.170833,2.660819 c 0.732896,0 1.322916,-0.1667342 1.322916,0.612115 v 9.442052 c 0,0.778849 -0.59002,1.5875 -1.322916,1.5875 -0.732896,0 -1.322917,0.166734 -1.322917,-0.612115 V 4.2483189 c 0,-0.7788492 0.590021,-1.5874999 1.322917,-1.5874999 z"
   id="path5" />
    <path
   style="display:inline;fill:#8cf287;stroke-width:0.283219"
   d="M 5.2916667,7.6879025 11.1125,6.8941523 V 9.5399855 L 5.2916666,10.333736 Z"
   id="path6" />
  </g>
</svg>
